<svg xmlns="http://www.w3.org/2000/svg" xmlns:xlink="http://www.w3.org/1999/xlink" xmlns:lucid="lucid" width="640" height="1040"><g transform="translate(-319 -19)" lucid:page-tab-id="YGcM5DNywbTK"><path d="M340 640h640v1020H340z" stroke="#000" stroke-opacity="0" stroke-width="4" fill="#de5f85" fill-opacity=".1" filter="url(#a)"/><path d="M602 40h718v560H602z" stroke="#000" stroke-opacity="0" stroke-width="4" fill="#0c7cba" fill-opacity=".1" filter="url(#b)"/><g filter="url(#c)"><path d="M882 130c0 27.6-35.82 50-80 50s-80-22.4-80-50 35.82-50 80-50 80 22.4 80 50z" stroke="#3d4752" stroke-width="4" fill="#5abaa7"/><use xlink:href="#d" transform="matrix(1,0,0,1,727.0000167214987,85) translate(52.77777777777778 49)"/></g><g filter="url(#c)"><path d="M882 350c0 27.6-35.82 50-80 50s-80-22.4-80-50 35.82-50 80-50 80 22.4 80 50z" stroke="#3d4752" stroke-width="4" fill="#fff"/><use xlink:href="#e" transform="matrix(1,0,0,1,727.0000167214987,305) translate(18.944444444444443 49)"/></g><path d="M801.5 276.6h-4V252h4zm0-48.6h-4V181.9h4z" fill="#494949"/><path d="M801.5 179.98v1.94h-4v-2.06zM799.5 291.6l-4.65-14.28h9.27z" fill="#494949"/><path d="M799.5 298.06l-7.4-22.74h14.77zm-1.9-18.74l1.9 5.8 1.87-5.8z" fill="#494949"/><use xlink:href="#f" transform="matrix(1,0,0,1,777.2907559351283,227.99106319891402) translate(0.004999999999999005 16)"/><g filter="url(#c)"><path d="M882 730c0 27.6-35.82 50-80 50s-80-22.4-80-50 35.82-50 80-50 80 22.4 80 50z" stroke="#3d4752" stroke-width="4" fill="#fff"/><use xlink:href="#g" transform="matrix(1,0,0,1,727.0000167214987,685) translate(7.25 49)"/></g><path d="M804 456.03h-4v-4.28h4zm0-28.28h-4V402h4zM802 400h1.08l.92-.04V402h-4v-2.06zM802 471.03l-4.64-14.27h9.28z" fill="#494949"/><path d="M802 477.5l-7.4-22.74h14.8zm-1.88-18.74l1.88 5.8 1.88-5.8z" fill="#494949"/><use xlink:href="#h" transform="matrix(1,0,0,1,784.2500167214987,427.75000872873164) translate(0.004999999999999005 16)"/><g filter="url(#i)"><path d="M802 480l80 60-80 60-80-60z" stroke="#3d4752" stroke-width="4" fill="#fff"/><use xlink:href="#j" transform="matrix(1,0,0,1,727.0000167214987,485) translate(53.333333333333336 45.8)"/><use xlink:href="#k" transform="matrix(1,0,0,1,727.0000167214987,485) translate(25.305555555555557 72.2)"/><use xlink:href="#l" transform="matrix(1,0,0,1,727.0000167214987,485) translate(85.25 72.2)"/><use xlink:href="#m" transform="matrix(1,0,0,1,727.0000167214987,485) translate(102.47222222222221 72.2)"/></g><path d="M680.67 538h38v4h-42v-85.67h4zm17.86-186h-17.86v80.33h-4V348h21.86zM721.67 542h-3v-4h3zM713.53 350l-14.27 4.64v-9.28z" fill="#494949"/><path d="M720 350l-22.74 7.4v-14.8zm-18.74 1.88l5.8-1.88-5.8-1.88z" fill="#494949"/><use xlink:href="#n" transform="matrix(1,0,0,1,665.9166837214987,432.33334186074933) translate(0.005000000000000782 16)"/><path d="M804 656.53h-4v-4.28h4zm0-28.28h-4V602.5h4zM802 600l.67-.5H804v3h-4v-3h1.33zM802 671.53l-4.64-14.27h9.28z" fill="#494949"/><path d="M802 678l-7.4-22.74h14.8zm-1.88-18.74l1.88 5.8 1.88-5.8z" fill="#494949"/><use xlink:href="#o" transform="matrix(1,0,0,1,785.6944611659432,628.2499912712683) translate(0.004999999999999005 16)"/><g filter="url(#p)"><path d="M1022 310h120v80h-120z" stroke="#3d4752" stroke-width="4" fill="#fff"/><use xlink:href="#q" transform="matrix(1,0,0,1,1027.0000167214987,315) translate(8.361111111111114 25.799999999999997)"/><use xlink:href="#r" transform="matrix(1,0,0,1,1027.0000167214987,315) translate(58.30555555555556 25.799999999999997)"/><use xlink:href="#s" transform="matrix(1,0,0,1,1027.0000167214987,315) translate(36.72222222222222 52.2)"/></g><path d="M910.15 352H884v-4h26.15zm88.38 0H965.7v-4h32.83zM884 352h-2.06l.06-2v-.26l-.07-1.74H884zM1013.53 350l-14.27 4.64v-9.28z" fill="#494949"/><path d="M1020 350l-22.74 7.4v-14.8zm-18.74 1.88l5.8-1.88-5.8-1.88z" fill="#494949"/><use xlink:href="#t" transform="matrix(1,0,0,1,910.1532716867276,338) translate(0.004999999999999005 16)"/><path d="M1084 308h-4v-43.33H820.96v-4H1084zM1084 310h-4v-2h4zM820.22 267.3l-14.26-4.63 14.26-4.64z" fill="#494949"/><path d="M822.22 270.05l-22.73-7.38 22.72-7.4zm-9.8-7.38l5.8 1.88v-3.77zM695.1 267.9l1.38 4.74 1.57 4.66 1.77 4.58 1.95 4.5 2.13 4.4 2.3 4.3 2.48 4.16 2.63 4.05 2.8 3.92 2.95 3.8 3.1 3.64 3.23 3.52 3.38 3.37 3.55 3.26-2.7 2.96-3.6-3.32-3.5-3.5-3.35-3.63-3.2-3.77-3.05-3.93-2.9-4.05-2.72-4.2-2.56-4.3-2.38-4.45-2.2-4.55-2.03-4.65-1.8-4.74-1.64-4.82-1.42-4.9-1.02-4.13h4.12zm20-98.04l-2.45 3.05-2.5 3.37-2.34 3.47-2.2 3.57-2.07 3.7-1.93 3.78-1.78 3.9-1.63 4.02-1.5 4.1-1.3 4.23-1.16 4.32-.68 3.06h-4.1l.9-4 1.2-4.48 1.35-4.38 1.55-4.27 1.7-4.17 1.85-4.05 2-3.94 2.15-3.82 2.3-3.72 2.45-3.6 2.58-3.5 2.52-3.1z" fill="#494949"/><path d="M731.68 326.18l-.9 1.02-1.62 2.1-1.6-1.6 2.82-2.83zM717.28 171.45l-6.44-6.66 13.47-6.6z" fill="#494949"/><path d="M717.76 174.82l-10.28-10.62 21.48-10.5zm-3.57-9.44l2.6 2.7 2.86-5.38z" fill="#494949"/><use xlink:href="#u" transform="matrix(1,0,0,1,656.3946790358809,214.4070186379692) translate(8.282777777777781 16)"/><use xlink:href="#v" transform="matrix(1,0,0,1,656.3946790358809,214.4070186379692) translate(0.005000000000002558 42.400000000000006)"/><g filter="url(#c)"><path d="M882 910c0 27.6-35.82 50-80 50s-80-22.4-80-50 35.82-50 80-50 80 22.4 80 50z" stroke="#3d4752" stroke-width="4" fill="#fff"/><use xlink:href="#w" transform="matrix(1,0,0,1,727.0000167214987,865) translate(46.138888888888886 49)"/></g><path d="M804 836.53h-4V832h4zm0-28.53h-4v-26h4zM802 780h1.08l.92-.04V782h-4v-2.06zM802 851.53l-4.64-14.27h9.28z" fill="#494949"/><path d="M802 858l-7.4-22.74h14.8zm-1.88-18.74l1.88 5.8 1.88-5.8z" fill="#494949"/><use xlink:href="#x" transform="matrix(1,0,0,1,769.2777944992765,808) translate(0.005000000000002558 16)"/><g filter="url(#c)"><path d="M882 1090c0 27.6-35.82 50-80 50s-80-22.4-80-50 35.82-50 80-50 80 22.4 80 50z" stroke="#3d4752" stroke-width="4" fill="#fff"/><use xlink:href="#y" transform="matrix(1,0,0,1,727.0000167214987,1045) translate(1.1944444444444429 49)"/></g><path d="M804 1016.53h-4v-15.86h4zm0-39.86h-4V962h4zM802 960h1.08l.92-.04V962h-4v-2.06zM802 1031.53l-4.64-14.27h9.28z" fill="#494949"/><path d="M802 1038l-7.4-22.74h14.8zm-1.88-18.74l1.88 5.8 1.88-5.8z" fill="#494949"/><use xlink:href="#z" transform="matrix(1,0,0,1,724.7777944992765,976.6666666666667) translate(0.0049999999999954525 16)"/><use xlink:href="#A" transform="matrix(1,0,0,1,724.7777944992765,976.6666666666667) translate(61.11611111111111 16)"/><use xlink:href="#B" transform="matrix(1,0,0,1,724.7777944992765,976.6666666666667) translate(72.22722222222222 16)"/><g filter="url(#p)"><path d="M742 1180h120v80H742z" stroke="#3d4752" stroke-width="4" fill="#fff"/><use xlink:href="#q" transform="matrix(1,0,0,1,747.0000167214987,1185) translate(8.388888888888886 25.799999999999997)"/><use xlink:href="#C" transform="matrix(1,0,0,1,747.0000167214987,1185) translate(58.33333333333333 25.799999999999997)"/><use xlink:href="#s" transform="matrix(1,0,0,1,747.0000167214987,1185) translate(36.72222222222222 52.2)"/></g><g filter="url(#i)"><path d="M802 1300l80 60-80 60-80-60z" stroke="#3d4752" stroke-width="4" fill="#fff"/><use xlink:href="#j" transform="matrix(1,0,0,1,727.0000167214987,1305) translate(53.333333333333336 45.8)"/><use xlink:href="#k" transform="matrix(1,0,0,1,727.0000167214987,1305) translate(25.305555555555557 72.2)"/><use xlink:href="#l" transform="matrix(1,0,0,1,727.0000167214987,1305) translate(85.25 72.2)"/><use xlink:href="#m" transform="matrix(1,0,0,1,727.0000167214987,1305) translate(102.47222222222221 72.2)"/></g><path d="M802 1142v14.53" stroke="#494949" stroke-width="4" fill="none"/><path d="M802 1140h1.08l.92-.04v2.04h-4v-2.06zM802 1171.53l-4.64-14.27h9.28z" fill="#494949"/><path d="M802 1178l-7.4-22.74h14.8zm-1.88-18.74l1.88 5.8 1.88-5.8z" fill="#494949"/><path d="M802 1262v14.03" stroke="#494949" stroke-width="4" fill="none"/><path d="M804 1262h-4v-2h4zM802 1291.03l-4.64-14.27h9.28z" fill="#494949"/><path d="M802 1297.5l-7.4-22.74h14.8zm-1.88-18.74l1.88 5.8 1.88-5.8zM680.67 1358h38v4h-42v-125.67h4zm17.86-266h-17.86v120.33h-4V1088h21.86zM721.67 1362h-3v-4h3zM713.53 1090l-14.27 4.64v-9.28z" fill="#494949"/><path d="M720 1090l-22.74 7.4v-14.8zm-18.74 1.88l5.8-1.88-5.8-1.88z" fill="#494949"/><use xlink:href="#n" transform="matrix(1,0,0,1,665.9166837214987,1212.3333418607494) translate(0.005000000000000782 16)"/><g filter="url(#i)"><path d="M802 1500l80 60-80 60-80-60z" stroke="#3d4752" stroke-width="4" fill="#fff"/><use xlink:href="#D" transform="matrix(1,0,0,1,727.0000167214987,1505) translate(14.75 59)"/><use xlink:href="#l" transform="matrix(1,0,0,1,727.0000167214987,1505) translate(63.583333333333336 59)"/><use xlink:href="#E" transform="matrix(1,0,0,1,727.0000167214987,1505) translate(80.80555555555556 59)"/></g><path d="M804 1476.03h-4V1472h4zm0-28.03h-4v-25.5h4zM802 1420l.67-.5H804v3h-4v-3h1.33zM802 1491.03l-4.64-14.27h9.28z" fill="#494949"/><path d="M802 1497.5l-7.4-22.74h14.8zm-1.88-18.74l1.88 5.8 1.88-5.8z" fill="#494949"/><use xlink:href="#o" transform="matrix(1,0,0,1,785.6944611659432,1448) translate(0.004999999999999005 16)"/><g filter="url(#c)"><path d="M602 1560c0 27.6-35.82 50-80 50s-80-22.4-80-50 35.82-50 80-50 80 22.4 80 50z" stroke="#3d4752" stroke-width="4" fill="#fff"/><use xlink:href="#F" transform="matrix(1,0,0,1,447.0000167214987,1515) translate(22.33333333333332 49)"/></g><g filter="url(#c)"><path d="M1260 510c0 27.6-35.82 50-80 50s-80-22.4-80-50 35.82-50 80-50 80 22.4 80 50z" stroke="#3d4752" stroke-width="4" fill="#fff"/><use xlink:href="#G" transform="matrix(1,0,0,1,1105,465) translate(13.888888888888886 49)"/></g><path d="M1182 1562H885.33v-4H1178v-337.67h4zm0-365.67h-4V583.47h4zM885.33 1562h-3v-4h3zM1184.64 582.74h-9.28l4.64-14.27z" fill="#494949"/><path d="M1187.4 584.74h-14.8L1180 562zm-9.28-4h3.76l-1.88-5.8z" fill="#494949"/><use xlink:href="#o" transform="matrix(1,0,0,1,1163.6944444444443,1196.3333338679822) translate(0.004999999999999005 16)"/><path d="M648.58 1562h-23.1v-4h23.1zm70.1 0h-44.6v-4h44.6z" fill="#494949"/><path d="M721.67 1562h-3v-4h3zM624.74 1564.64l-14.27-4.64 14.27-4.64z" fill="#494949"/><path d="M626.74 1567.4L604 1560l22.74-7.4zm-9.8-7.4l5.8 1.88v-3.76z" fill="#494949"/><use xlink:href="#n" transform="matrix(1,0,0,1,648.583358582248,1548) translate(0.005000000000000782 16)"/><path d="M402 1558h38v4h-42v-380.8h4zm296.53-646H402v245.2h-4V908h300.53zM442.06 1558l-.06 2v.26l.07 1.74H440v-4h2.06zM713.53 910l-14.27 4.64v-9.28z" fill="#494949"/><path d="M720 910l-22.74 7.4v-14.8zm-18.74 1.88l5.8-1.88-5.8-1.88z" fill="#494949"/><use xlink:href="#x" transform="matrix(1,0,0,1,367.27777777777777,1157.1983240223465) translate(0.005000000000002558 16)"/><path d="M1182 458h-4V199.66h4zm0-282.34h-4V132H905.47v-4H1182zM1182 460.06l-2-.06h-1.08l-.92.04V458h4zM904.74 134.64L890.47 130l14.27-4.64z" fill="#494949"/><path d="M906.74 137.4L884 130l22.74-7.4zm-9.8-7.4l5.8 1.88v-3.76z" fill="#494949"/><use xlink:href="#x" transform="matrix(1,0,0,1,1147.2777777777778,175.65810515332288) translate(0.005000000000002558 16)"/><path d="M937.2 1030.4l-1.23 5.8-1.38 5.4-1.5 4.92-1.57 4.5-1.6 4.1-1.66 3.7-1.67 3.37-1.68 3.04-1.67 2.76-1.66 2.5-1.66 2.28-1.64 2.07-1.63 1.88-1.6 1.7-1.6 1.58-1.6 1.43-1.56 1.3-1.56 1.2-1.56 1.08-1.56 1-1.56.9-1.56.82-1.57.74-1.58.66-1.6.6-1.6.52-1.64.46-1.65.4-1.7.3-1.7.26-1.77.2-1.8.1-1.84.04-.08-4 1.74-.04 1.64-.1 1.6-.17 1.56-.24 1.52-.3 1.5-.34 1.47-.4 1.44-.48 1.43-.53 1.43-.6 1.42-.66 1.4-.74 1.43-.82 1.4-.9 1.44-1 1.42-1.08 1.45-1.2 1.46-1.3 1.48-1.46 1.5-1.6 1.5-1.74 1.55-1.94 1.55-2.14 1.57-2.37 1.6-2.6 1.58-2.9 1.6-3.23 1.58-3.56 1.55-3.93 1.5-4.34 1.45-4.8 1.34-5.2 1.2-5.66.75-4.44h4.06zM905.62 914l1.56.98 1.56 1.1 1.57 1.18 1.58 1.3 1.58 1.43 1.6 1.55 1.6 1.72 1.63 1.88 1.63 2.07 1.65 2.27 1.67 2.5 1.67 2.76 1.67 3.04 1.66 3.37 1.65 3.7 1.63 4.1 1.57 4.5 1.48 4.93 1.38 5.38 1.24 5.82.88 5.2h-4.06l-.75-4.45-1.2-5.66-1.34-5.22-1.44-4.78-1.52-4.34-1.56-3.93-1.58-3.56-1.6-3.2-1.6-2.9-1.57-2.63-1.57-2.37-1.55-2.13-1.54-1.94-1.5-1.75-1.5-1.6-1.47-1.44-1.46-1.3-1.45-1.2-1.43-1.1-1.44-.98-1.42-.9-.1-.06 2-3.46z" fill="#494949"/><path d="M884.37 1091.97l-2.47.46.04-.44.06-2v-.26l-.06-1.4 1.7-.3zM902.76 919.97l-12.52-8.25 14.98-.7z" fill="#494949"/><path d="M903.96 923.16L884 910l23.88-1.1zm-7.48-9.72l5.1 3.35 1-3.64z" fill="#494949"/><g><use xlink:href="#u" transform="matrix(1,0,0,1,905.2408402119731,974.7989211660134) translate(8.282777777777781 16)"/><use xlink:href="#v" transform="matrix(1,0,0,1,905.2408402119731,974.7989211660134) translate(0.005000000000002558 42.400000000000006)"/></g><defs><filter id="a" filterUnits="objectBoundingBox" x="-.02" y="0" width="1.03" height="1.02"><feOffset result="offOut" in="SourceAlpha" dy="6"/><feGaussianBlur result="blurOut" in="offOut" stdDeviation="5"/><feColorMatrix result="colorOut" in="blurOut" values="0 0 0 0 0 0 0 0 0 0 0 0 0 0 0 0 0 0 0.16862745098039217 0"/><feBlend in="SourceGraphic" in2="colorOut"/></filter><filter id="b" filterUnits="objectBoundingBox" x="-.01" y="-.01" width="1.03" height="1.04"><feOffset result="offOut" in="SourceAlpha" dy="6"/><feGaussianBlur result="blurOut" in="offOut" stdDeviation="5"/><feColorMatrix result="colorOut" in="blurOut" values="0 0 0 0 0 0 0 0 0 0 0 0 0 0 0 0 0 0 0.16862745098039217 0"/><feBlend in="SourceGraphic" in2="colorOut"/></filter><path fill="#3d4752" d="M100-194c62-1 85 37 85 99 1 63-27 99-86 99S16-35 15-95c0-66 28-99 85-99zM99-20c44 1 53-31 53-75 0-43-8-75-51-75s-53 32-53 75 10 74 51 75" id="H"/><path fill="#3d4752" d="M115-194c55 1 70 41 70 98S169 2 115 4C84 4 66-9 55-30l1 105H24l-1-265h31l2 30c10-21 28-34 59-34zm-8 174c40 0 45-34 45-75s-6-73-45-74c-42 0-51 32-51 76 0 43 10 73 51 73" id="I"/><path fill="#3d4752" d="M100-194c63 0 86 42 84 106H49c0 40 14 67 53 68 26 1 43-12 49-29l28 8c-11 28-37 45-77 45C44 4 14-33 15-96c1-61 26-98 85-98zm52 81c6-60-76-77-97-28-3 7-6 17-6 28h103" id="J"/><path fill="#3d4752" d="M117-194c89-4 53 116 60 194h-32v-121c0-31-8-49-39-48C34-167 62-67 57 0H25l-1-190h30c1 10-1 24 2 32 11-22 29-35 61-36" id="K"/><g id="d"><use transform="matrix(0.05555555555555555,0,0,0.05555555555555555,0,0)" xlink:href="#H"/><use transform="matrix(0.05555555555555555,0,0,0.05555555555555555,11.11111111111111,0)" xlink:href="#I"/><use transform="matrix(0.05555555555555555,0,0,0.05555555555555555,22.22222222222222,0)" xlink:href="#J"/><use transform="matrix(0.05555555555555555,0,0,0.05555555555555555,33.33333333333333,0)" xlink:href="#K"/></g><filter id="c" filterUnits="objectBoundingBox" x="-.06" y="-.04" width="1.13" height="1.2"><feOffset result="offOut" in="SourceAlpha" dy="6"/><feGaussianBlur result="blurOut" in="offOut" stdDeviation="5"/><feColorMatrix result="colorOut" in="blurOut" values="0 0 0 0 0 0 0 0 0 0 0 0 0 0 0 0 0 0 0.16862745098039217 0"/><feBlend in="SourceGraphic" in2="colorOut"/></filter><path fill="#3d4752" d="M0 4l72-265h28L28 4H0" id="L"/><path fill="#3d4752" d="M24 0v-261h32V0H24" id="M"/><path fill="#3d4752" d="M96-169c-40 0-48 33-48 73s9 75 48 75c24 0 41-14 43-38l32 2c-6 37-31 61-74 61-59 0-76-41-82-99-10-93 101-131 147-64 4 7 5 14 7 22l-32 3c-4-21-16-35-41-35" id="N"/><path fill="#3d4752" d="M143 0L79-87 56-68V0H24v-261h32v163l83-92h37l-77 82L181 0h-38" id="O"/><path fill="#3d4752" d="M24-231v-30h32v30H24zM24 0v-190h32V0H24" id="P"/><path fill="#3d4752" d="M177-190C167-65 218 103 67 71c-23-6-38-20-44-43l32-5c15 47 100 32 89-28v-30C133-14 115 1 83 1 29 1 15-40 15-95c0-56 16-97 71-98 29-1 48 16 59 35 1-10 0-23 2-32h30zM94-22c36 0 50-32 50-73 0-42-14-75-50-75-39 0-46 34-46 75s6 73 46 73" id="Q"/><g id="e"><use transform="matrix(0.05555555555555555,0,0,0.05555555555555555,0,0)" xlink:href="#H"/><use transform="matrix(0.05555555555555555,0,0,0.05555555555555555,11.11111111111111,0)" xlink:href="#I"/><use transform="matrix(0.05555555555555555,0,0,0.05555555555555555,22.22222222222222,0)" xlink:href="#J"/><use transform="matrix(0.05555555555555555,0,0,0.05555555555555555,33.33333333333333,0)" xlink:href="#K"/><use transform="matrix(0.05555555555555555,0,0,0.05555555555555555,44.44444444444444,0)" xlink:href="#L"/><use transform="matrix(0.05555555555555555,0,0,0.05555555555555555,50,0)" xlink:href="#M"/><use transform="matrix(0.05555555555555555,0,0,0.05555555555555555,54.388888888888886,0)" xlink:href="#H"/><use transform="matrix(0.05555555555555555,0,0,0.05555555555555555,65.5,0)" xlink:href="#N"/><use transform="matrix(0.05555555555555555,0,0,0.05555555555555555,75.5,0)" xlink:href="#O"/><use transform="matrix(0.05555555555555555,0,0,0.05555555555555555,85.5,0)" xlink:href="#P"/><use transform="matrix(0.05555555555555555,0,0,0.05555555555555555,89.88888888888889,0)" xlink:href="#K"/><use transform="matrix(0.05555555555555555,0,0,0.05555555555555555,101,0)" xlink:href="#Q"/></g><path fill="#3d4752" d="M114-163C36-179 61-72 57 0H25l-1-190h30c1 12-1 29 2 39 6-27 23-49 58-41v29" id="R"/><path fill="#3d4752" d="M135-143c-3-34-86-38-87 0 15 53 115 12 119 90S17 21 10-45l28-5c4 36 97 45 98 0-10-56-113-15-118-90-4-57 82-63 122-42 12 7 21 19 24 35" id="S"/><path fill="#3d4752" d="M59-47c-2 24 18 29 38 22v24C64 9 27 4 27-40v-127H5v-23h24l9-43h21v43h35v23H59v120" id="T"/><g id="f"><use transform="matrix(0.05555555555555555,0,0,0.05555555555555555,0,0)" xlink:href="#R"/><use transform="matrix(0.05555555555555555,0,0,0.05555555555555555,6.611111111111111,0)" xlink:href="#J"/><use transform="matrix(0.05555555555555555,0,0,0.05555555555555555,17.72222222222222,0)" xlink:href="#S"/><use transform="matrix(0.05555555555555555,0,0,0.05555555555555555,27.72222222222222,0)" xlink:href="#J"/><use transform="matrix(0.05555555555555555,0,0,0.05555555555555555,38.83333333333333,0)" xlink:href="#T"/></g><path fill="#3d4752" d="M85-194c31 0 48 13 60 33l-1-100h32l1 261h-30c-2-10 0-23-3-31C134-8 116 4 85 4 32 4 16-35 15-94c0-66 23-100 70-100zm9 24c-40 0-46 34-46 75 0 40 6 74 45 74 42 0 51-32 51-76 0-42-9-74-50-73" id="U"/><path fill="#3d4752" d="M84 4C-5 8 30-112 23-190h32v120c0 31 7 50 39 49 72-2 45-101 50-169h31l1 190h-30c-1-10 1-25-2-33-11 22-28 36-60 37" id="V"/><g id="g"><use transform="matrix(0.05555555555555555,0,0,0.05555555555555555,0,0)" xlink:href="#N"/><use transform="matrix(0.05555555555555555,0,0,0.05555555555555555,10,0)" xlink:href="#M"/><use transform="matrix(0.05555555555555555,0,0,0.05555555555555555,14.388888888888888,0)" xlink:href="#H"/><use transform="matrix(0.05555555555555555,0,0,0.05555555555555555,25.5,0)" xlink:href="#S"/><use transform="matrix(0.05555555555555555,0,0,0.05555555555555555,35.5,0)" xlink:href="#J"/><use transform="matrix(0.05555555555555555,0,0,0.05555555555555555,46.611111111111114,0)" xlink:href="#U"/><use transform="matrix(0.05555555555555555,0,0,0.05555555555555555,57.72222222222223,0)" xlink:href="#L"/><use transform="matrix(0.05555555555555555,0,0,0.05555555555555555,63.277777777777786,0)" xlink:href="#S"/><use transform="matrix(0.05555555555555555,0,0,0.05555555555555555,73.27777777777779,0)" xlink:href="#V"/><use transform="matrix(0.05555555555555555,0,0,0.05555555555555555,84.3888888888889,0)" xlink:href="#N"/><use transform="matrix(0.05555555555555555,0,0,0.05555555555555555,94.3888888888889,0)" xlink:href="#N"/><use transform="matrix(0.05555555555555555,0,0,0.05555555555555555,104.3888888888889,0)" xlink:href="#J"/><use transform="matrix(0.05555555555555555,0,0,0.05555555555555555,115.50000000000001,0)" xlink:href="#S"/><use transform="matrix(0.05555555555555555,0,0,0.05555555555555555,125.50000000000001,0)" xlink:href="#S"/></g><g id="h"><use transform="matrix(0.05555555555555555,0,0,0.05555555555555555,0,0)" xlink:href="#M"/><use transform="matrix(0.05555555555555555,0,0,0.05555555555555555,4.388888888888888,0)" xlink:href="#H"/><use transform="matrix(0.05555555555555555,0,0,0.05555555555555555,15.5,0)" xlink:href="#N"/><use transform="matrix(0.05555555555555555,0,0,0.05555555555555555,25.5,0)" xlink:href="#O"/></g><g id="j"><use transform="matrix(0.05555555555555555,0,0,0.05555555555555555,0,0)" xlink:href="#N"/><use transform="matrix(0.05555555555555555,0,0,0.05555555555555555,10,0)" xlink:href="#H"/><use transform="matrix(0.05555555555555555,0,0,0.05555555555555555,21.11111111111111,0)" xlink:href="#U"/><use transform="matrix(0.05555555555555555,0,0,0.05555555555555555,32.22222222222222,0)" xlink:href="#J"/></g><path fill="#3d4752" d="M106-169C34-169 62-67 57 0H25v-261h32l-1 103c12-21 28-36 61-36 89 0 53 116 60 194h-32v-121c2-32-8-49-39-48" id="W"/><g id="k"><use transform="matrix(0.05555555555555555,0,0,0.05555555555555555,0,0)" xlink:href="#M"/><use transform="matrix(0.05555555555555555,0,0,0.05555555555555555,4.388888888888888,0)" xlink:href="#J"/><use transform="matrix(0.05555555555555555,0,0,0.05555555555555555,15.5,0)" xlink:href="#K"/><use transform="matrix(0.05555555555555555,0,0,0.05555555555555555,26.61111111111111,0)" xlink:href="#Q"/><use transform="matrix(0.05555555555555555,0,0,0.05555555555555555,37.72222222222222,0)" xlink:href="#T"/><use transform="matrix(0.05555555555555555,0,0,0.05555555555555555,43.27777777777778,0)" xlink:href="#W"/></g><path fill="#3d4752" d="M18-150v-26h174v26H18zm0 90v-26h174v26H18" id="X"/><use transform="matrix(0.05555555555555555,0,0,0.05555555555555555,0,0)" xlink:href="#X" id="l"/><path fill="#3d4752" d="M155-56V0h-30v-56H8v-25l114-167h33v167h35v25h-35zm-30-156c-27 46-58 90-88 131h88v-131" id="Y"/><path fill="#3d4752" d="M103-251c84 0 111 97 45 133-19 10-37 24-39 52H78c0-63 77-55 77-114 0-30-21-42-52-43-32 0-53 17-56 46l-32-2c7-45 34-72 88-72zM77 0v-35h34V0H77" id="Z"/><g id="m"><use transform="matrix(0.05555555555555555,0,0,0.05555555555555555,0,0)" xlink:href="#Y"/><use transform="matrix(0.05555555555555555,0,0,0.05555555555555555,11.11111111111111,0)" xlink:href="#Z"/></g><filter id="i" filterUnits="objectBoundingBox" x="-.06" y="-.03" width="1.13" height="1.17"><feOffset result="offOut" in="SourceAlpha" dy="6"/><feGaussianBlur result="blurOut" in="offOut" stdDeviation="5"/><feColorMatrix result="colorOut" in="blurOut" values="0 0 0 0 0 0 0 0 0 0 0 0 0 0 0 0 0 0 0.16862745098039217 0"/><feBlend in="SourceGraphic" in2="colorOut"/></filter><path fill="#3d4752" d="M190 0L58-211 59 0H30v-248h39L202-35l-2-213h31V0h-41" id="aa"/><g id="n"><use transform="matrix(0.05555555555555555,0,0,0.05555555555555555,0,0)" xlink:href="#aa"/><use transform="matrix(0.05555555555555555,0,0,0.05555555555555555,14.388888888888888,0)" xlink:href="#H"/></g><path fill="#3d4752" d="M137-103V0h-34v-103L8-248h37l75 118 75-118h37" id="ab"/><g id="o"><use transform="matrix(0.05555555555555555,0,0,0.05555555555555555,0,0)" xlink:href="#ab"/><use transform="matrix(0.05555555555555555,0,0,0.05555555555555555,11.499999999999998,0)" xlink:href="#J"/><use transform="matrix(0.05555555555555555,0,0,0.05555555555555555,22.611111111111107,0)" xlink:href="#S"/></g><g id="q"><use transform="matrix(0.05555555555555555,0,0,0.05555555555555555,0,0)" xlink:href="#S"/><use transform="matrix(0.05555555555555555,0,0,0.05555555555555555,10,0)" xlink:href="#T"/><use transform="matrix(0.05555555555555555,0,0,0.05555555555555555,15.555555555555555,0)" xlink:href="#H"/><use transform="matrix(0.05555555555555555,0,0,0.05555555555555555,26.666666666666664,0)" xlink:href="#R"/><use transform="matrix(0.05555555555555555,0,0,0.05555555555555555,33.27777777777777,0)" xlink:href="#J"/></g><g id="r"><use transform="matrix(0.05555555555555555,0,0,0.05555555555555555,0,0)" xlink:href="#N"/><use transform="matrix(0.05555555555555555,0,0,0.05555555555555555,10,0)" xlink:href="#H"/><use transform="matrix(0.05555555555555555,0,0,0.05555555555555555,21.11111111111111,0)" xlink:href="#U"/><use transform="matrix(0.05555555555555555,0,0,0.05555555555555555,32.22222222222222,0)" xlink:href="#J"/></g><g id="s"><use transform="matrix(0.05555555555555555,0,0,0.05555555555555555,0,0)" xlink:href="#U"/><use transform="matrix(0.05555555555555555,0,0,0.05555555555555555,11.11111111111111,0)" xlink:href="#P"/><use transform="matrix(0.05555555555555555,0,0,0.05555555555555555,15.5,0)" xlink:href="#Q"/><use transform="matrix(0.05555555555555555,0,0,0.05555555555555555,26.61111111111111,0)" xlink:href="#P"/><use transform="matrix(0.05555555555555555,0,0,0.05555555555555555,31,0)" xlink:href="#T"/></g><filter id="p" filterUnits="objectBoundingBox" x="-.08" y="-.05" width="1.17" height="1.25"><feOffset result="offOut" in="SourceAlpha" dy="6"/><feGaussianBlur result="blurOut" in="offOut" stdDeviation="5"/><feColorMatrix result="colorOut" in="blurOut" values="0 0 0 0 0 0 0 0 0 0 0 0 0 0 0 0 0 0 0.16862745098039217 0"/><feBlend in="SourceGraphic" in2="colorOut"/></filter><path fill="#3d4752" d="M115-194c53 0 69 39 70 98 0 66-23 100-70 100C84 3 66-7 56-30L54 0H23l1-261h32v101c10-23 28-34 59-34zm-8 174c40 0 45-34 45-75 0-40-5-75-45-74-42 0-51 32-51 76 0 43 10 73 51 73" id="ac"/><g id="t"><use transform="matrix(0.05555555555555555,0,0,0.05555555555555555,0,0)" xlink:href="#ac"/><use transform="matrix(0.05555555555555555,0,0,0.05555555555555555,11.11111111111111,0)" xlink:href="#V"/><use transform="matrix(0.05555555555555555,0,0,0.05555555555555555,22.22222222222222,0)" xlink:href="#T"/><use transform="matrix(0.05555555555555555,0,0,0.05555555555555555,27.77777777777778,0)" xlink:href="#T"/><use transform="matrix(0.05555555555555555,0,0,0.05555555555555555,33.333333333333336,0)" xlink:href="#H"/><use transform="matrix(0.05555555555555555,0,0,0.05555555555555555,44.44444444444444,0)" xlink:href="#K"/></g><path fill="#3d4752" d="M108 0H70L1-190h34L89-25l56-165h34" id="ad"/><g id="u"><use transform="matrix(0.05555555555555555,0,0,0.05555555555555555,0,0)" xlink:href="#J"/><use transform="matrix(0.05555555555555555,0,0,0.05555555555555555,11.11111111111111,0)" xlink:href="#ad"/><use transform="matrix(0.05555555555555555,0,0,0.05555555555555555,21.11111111111111,0)" xlink:href="#J"/><use transform="matrix(0.05555555555555555,0,0,0.05555555555555555,32.22222222222222,0)" xlink:href="#K"/><use transform="matrix(0.05555555555555555,0,0,0.05555555555555555,43.33333333333333,0)" xlink:href="#T"/></g><path fill="#3d4752" d="M210-169c-67 3-38 105-44 169h-31v-121c0-29-5-50-35-48C34-165 62-65 56 0H25l-1-190h30c1 10-1 24 2 32 10-44 99-50 107 0 11-21 27-35 58-36 85-2 47 119 55 194h-31v-121c0-29-5-49-35-48" id="ae"/><g id="v"><use transform="matrix(0.05555555555555555,0,0,0.05555555555555555,0,0)" xlink:href="#T"/><use transform="matrix(0.05555555555555555,0,0,0.05555555555555555,5.555555555555555,0)" xlink:href="#P"/><use transform="matrix(0.05555555555555555,0,0,0.05555555555555555,9.944444444444443,0)" xlink:href="#ae"/><use transform="matrix(0.05555555555555555,0,0,0.05555555555555555,26.555555555555554,0)" xlink:href="#J"/><use transform="matrix(0.05555555555555555,0,0,0.05555555555555555,37.666666666666664,0)" xlink:href="#H"/><use transform="matrix(0.05555555555555555,0,0,0.05555555555555555,48.77777777777777,0)" xlink:href="#V"/><use transform="matrix(0.05555555555555555,0,0,0.05555555555555555,59.888888888888886,0)" xlink:href="#T"/></g><g id="w"><use transform="matrix(0.05555555555555555,0,0,0.05555555555555555,0,0)" xlink:href="#N"/><use transform="matrix(0.05555555555555555,0,0,0.05555555555555555,10,0)" xlink:href="#M"/><use transform="matrix(0.05555555555555555,0,0,0.05555555555555555,14.388888888888888,0)" xlink:href="#H"/><use transform="matrix(0.05555555555555555,0,0,0.05555555555555555,25.5,0)" xlink:href="#S"/><use transform="matrix(0.05555555555555555,0,0,0.05555555555555555,35.5,0)" xlink:href="#J"/><use transform="matrix(0.05555555555555555,0,0,0.05555555555555555,46.611111111111114,0)" xlink:href="#U"/></g><g id="x"><use transform="matrix(0.05555555555555555,0,0,0.05555555555555555,0,0)" xlink:href="#T"/><use transform="matrix(0.05555555555555555,0,0,0.05555555555555555,5.555555555555555,0)" xlink:href="#P"/><use transform="matrix(0.05555555555555555,0,0,0.05555555555555555,9.944444444444443,0)" xlink:href="#ae"/><use transform="matrix(0.05555555555555555,0,0,0.05555555555555555,26.555555555555554,0)" xlink:href="#J"/><use transform="matrix(0.05555555555555555,0,0,0.05555555555555555,37.666666666666664,0)" xlink:href="#H"/><use transform="matrix(0.05555555555555555,0,0,0.05555555555555555,48.77777777777777,0)" xlink:href="#V"/><use transform="matrix(0.05555555555555555,0,0,0.05555555555555555,59.888888888888886,0)" xlink:href="#T"/></g><g id="y"><use transform="matrix(0.05555555555555555,0,0,0.05555555555555555,0,0)" xlink:href="#N"/><use transform="matrix(0.05555555555555555,0,0,0.05555555555555555,10,0)" xlink:href="#M"/><use transform="matrix(0.05555555555555555,0,0,0.05555555555555555,14.388888888888888,0)" xlink:href="#H"/><use transform="matrix(0.05555555555555555,0,0,0.05555555555555555,25.5,0)" xlink:href="#S"/><use transform="matrix(0.05555555555555555,0,0,0.05555555555555555,35.5,0)" xlink:href="#J"/><use transform="matrix(0.05555555555555555,0,0,0.05555555555555555,46.611111111111114,0)" xlink:href="#U"/><use transform="matrix(0.05555555555555555,0,0,0.05555555555555555,57.72222222222223,0)" xlink:href="#L"/><use transform="matrix(0.05555555555555555,0,0,0.05555555555555555,63.277777777777786,0)" xlink:href="#V"/><use transform="matrix(0.05555555555555555,0,0,0.05555555555555555,74.3888888888889,0)" xlink:href="#K"/><use transform="matrix(0.05555555555555555,0,0,0.05555555555555555,85.50000000000001,0)" xlink:href="#M"/><use transform="matrix(0.05555555555555555,0,0,0.05555555555555555,89.8888888888889,0)" xlink:href="#H"/><use transform="matrix(0.05555555555555555,0,0,0.05555555555555555,101.00000000000001,0)" xlink:href="#N"/><use transform="matrix(0.05555555555555555,0,0,0.05555555555555555,111.00000000000001,0)" xlink:href="#O"/><use transform="matrix(0.05555555555555555,0,0,0.05555555555555555,121.00000000000001,0)" xlink:href="#P"/><use transform="matrix(0.05555555555555555,0,0,0.05555555555555555,125.38888888888891,0)" xlink:href="#K"/><use transform="matrix(0.05555555555555555,0,0,0.05555555555555555,136.5,0)" xlink:href="#Q"/></g><g id="z"><use transform="matrix(0.05555555555555555,0,0,0.05555555555555555,0,0)" xlink:href="#ac"/><use transform="matrix(0.05555555555555555,0,0,0.05555555555555555,11.11111111111111,0)" xlink:href="#V"/><use transform="matrix(0.05555555555555555,0,0,0.05555555555555555,22.22222222222222,0)" xlink:href="#T"/><use transform="matrix(0.05555555555555555,0,0,0.05555555555555555,27.77777777777778,0)" xlink:href="#T"/><use transform="matrix(0.05555555555555555,0,0,0.05555555555555555,33.333333333333336,0)" xlink:href="#H"/><use transform="matrix(0.05555555555555555,0,0,0.05555555555555555,44.44444444444444,0)" xlink:href="#K"/></g><use transform="matrix(0.05555555555555555,0,0,0.05555555555555555,0,0)" xlink:href="#L" id="A"/><g id="B"><use transform="matrix(0.05555555555555555,0,0,0.05555555555555555,0,0)" xlink:href="#I"/><use transform="matrix(0.05555555555555555,0,0,0.05555555555555555,11.11111111111111,0)" xlink:href="#H"/><use transform="matrix(0.05555555555555555,0,0,0.05555555555555555,22.22222222222222,0)" xlink:href="#S"/><use transform="matrix(0.05555555555555555,0,0,0.05555555555555555,32.22222222222222,0)" xlink:href="#T"/><use transform="matrix(0.05555555555555555,0,0,0.05555555555555555,37.77777777777778,0)" xlink:href="#I"/><use transform="matrix(0.05555555555555555,0,0,0.05555555555555555,48.888888888888886,0)" xlink:href="#H"/><use transform="matrix(0.05555555555555555,0,0,0.05555555555555555,60,0)" xlink:href="#K"/><use transform="matrix(0.05555555555555555,0,0,0.05555555555555555,71.11111111111111,0)" xlink:href="#J"/></g><g id="C"><use transform="matrix(0.05555555555555555,0,0,0.05555555555555555,0,0)" xlink:href="#P"/><use transform="matrix(0.05555555555555555,0,0,0.05555555555555555,4.388888888888888,0)" xlink:href="#K"/><use transform="matrix(0.05555555555555555,0,0,0.05555555555555555,15.5,0)" xlink:href="#I"/><use transform="matrix(0.05555555555555555,0,0,0.05555555555555555,26.61111111111111,0)" xlink:href="#V"/><use transform="matrix(0.05555555555555555,0,0,0.05555555555555555,37.72222222222222,0)" xlink:href="#T"/></g><g id="D"><use transform="matrix(0.05555555555555555,0,0,0.05555555555555555,0,0)" xlink:href="#P"/><use transform="matrix(0.05555555555555555,0,0,0.05555555555555555,4.388888888888888,0)" xlink:href="#K"/><use transform="matrix(0.05555555555555555,0,0,0.05555555555555555,15.5,0)" xlink:href="#I"/><use transform="matrix(0.05555555555555555,0,0,0.05555555555555555,26.61111111111111,0)" xlink:href="#V"/><use transform="matrix(0.05555555555555555,0,0,0.05555555555555555,37.72222222222222,0)" xlink:href="#T"/></g><g id="E"><use transform="matrix(0.05555555555555555,0,0,0.05555555555555555,0,0)" xlink:href="#N"/><use transform="matrix(0.05555555555555555,0,0,0.05555555555555555,10,0)" xlink:href="#H"/><use transform="matrix(0.05555555555555555,0,0,0.05555555555555555,21.11111111111111,0)" xlink:href="#U"/><use transform="matrix(0.05555555555555555,0,0,0.05555555555555555,32.22222222222222,0)" xlink:href="#J"/><use transform="matrix(0.05555555555555555,0,0,0.05555555555555555,43.33333333333333,0)" xlink:href="#Z"/></g><g id="F"><use transform="matrix(0.05555555555555555,0,0,0.05555555555555555,0,0)" xlink:href="#N"/><use transform="matrix(0.05555555555555555,0,0,0.05555555555555555,10,0)" xlink:href="#M"/><use transform="matrix(0.05555555555555555,0,0,0.05555555555555555,14.388888888888888,0)" xlink:href="#H"/><use transform="matrix(0.05555555555555555,0,0,0.05555555555555555,25.5,0)" xlink:href="#S"/><use transform="matrix(0.05555555555555555,0,0,0.05555555555555555,35.5,0)" xlink:href="#J"/><use transform="matrix(0.05555555555555555,0,0,0.05555555555555555,46.611111111111114,0)" xlink:href="#U"/><use transform="matrix(0.05555555555555555,0,0,0.05555555555555555,57.72222222222223,0)" xlink:href="#L"/><use transform="matrix(0.05555555555555555,0,0,0.05555555555555555,63.277777777777786,0)" xlink:href="#J"/><use transform="matrix(0.05555555555555555,0,0,0.05555555555555555,74.3888888888889,0)" xlink:href="#R"/><use transform="matrix(0.05555555555555555,0,0,0.05555555555555555,81.00000000000001,0)" xlink:href="#R"/><use transform="matrix(0.05555555555555555,0,0,0.05555555555555555,87.61111111111113,0)" xlink:href="#H"/><use transform="matrix(0.05555555555555555,0,0,0.05555555555555555,98.72222222222224,0)" xlink:href="#R"/></g><g id="G"><use transform="matrix(0.05555555555555555,0,0,0.05555555555555555,0,0)" xlink:href="#H"/><use transform="matrix(0.05555555555555555,0,0,0.05555555555555555,11.11111111111111,0)" xlink:href="#I"/><use transform="matrix(0.05555555555555555,0,0,0.05555555555555555,22.22222222222222,0)" xlink:href="#J"/><use transform="matrix(0.05555555555555555,0,0,0.05555555555555555,33.33333333333333,0)" xlink:href="#K"/><use transform="matrix(0.05555555555555555,0,0,0.05555555555555555,44.44444444444444,0)" xlink:href="#L"/><use transform="matrix(0.05555555555555555,0,0,0.05555555555555555,50,0)" xlink:href="#S"/><use transform="matrix(0.05555555555555555,0,0,0.05555555555555555,60,0)" xlink:href="#V"/><use transform="matrix(0.05555555555555555,0,0,0.05555555555555555,71.11111111111111,0)" xlink:href="#N"/><use transform="matrix(0.05555555555555555,0,0,0.05555555555555555,81.11111111111111,0)" xlink:href="#N"/><use transform="matrix(0.05555555555555555,0,0,0.05555555555555555,91.11111111111111,0)" xlink:href="#J"/><use transform="matrix(0.05555555555555555,0,0,0.05555555555555555,102.22222222222223,0)" xlink:href="#S"/><use transform="matrix(0.05555555555555555,0,0,0.05555555555555555,112.22222222222223,0)" xlink:href="#S"/></g></defs></g></svg>
