<?xml version="1.0" standalone="no"?>
<!DOCTYPE svg PUBLIC "-//W3C//DTD SVG 20010904//EN"
 "http://www.w3.org/TR/2001/REC-SVG-20010904/DTD/svg10.dtd">
<svg version="1.0" xmlns="http://www.w3.org/2000/svg"
 width="562.000000pt" height="46.000000pt" viewBox="0 0 562.000000 46.000000"
 preserveAspectRatio="xMidYMid meet">
<g transform="translate(0.000000,46.000000) scale(0.100000,-0.100000)"
fill="#303030" stroke="none">
<path d="M487 406 c-50 -19 -76 -42 -98 -91 -36 -78 -19 -168 40 -218 88 -74
221 -51 279 48 19 33 22 52 20 105 -4 73 -29 119 -77 145 -43 22 -120 27 -164
11z m121 -26 c113 -69 102 -265 -18 -301 -33 -10 -44 -9 -82 10 -114 55 -125
239 -18 293 45 23 77 23 118 -2z"/>
<path d="M846 258 c-20 -180 -21 -185 -44 -191 -10 -3 8 -5 38 -5 30 0 47 2
36 5 -17 5 -18 13 -11 111 4 59 10 110 14 115 4 4 31 -45 61 -108 29 -64 57
-118 62 -121 5 -3 36 52 70 123 l62 128 7 -60 c4 -33 10 -90 14 -128 l7 -67
91 1 c51 0 86 3 80 6 -17 6 -16 30 3 87 l16 47 51 -3 51 -3 23 -59 c12 -32 20
-63 17 -67 -3 -5 19 -9 48 -9 49 0 51 1 28 13 -20 10 -39 46 -90 174 -36 89
-67 164 -71 167 -3 3 -25 -50 -49 -117 -70 -198 -85 -227 -113 -227 -14 0 -30
7 -37 15 -7 8 -20 84 -29 169 -9 85 -19 158 -22 161 -4 3 -18 -21 -32 -52 -14
-32 -45 -98 -68 -148 l-42 -89 -73 147 c-41 81 -76 147 -77 147 -2 0 -12 -73
-21 -162z"/>
<path d="M1640 260 c0 -91 -4 -170 -8 -176 -4 -6 -14 -14 -22 -17 -8 -3 12 -5
45 -6 43 0 54 3 39 9 -26 10 -34 51 -34 175 l0 90 131 -137 c72 -76 135 -138
140 -138 5 0 9 71 9 165 0 146 2 165 18 174 13 8 4 10 -38 10 -43 0 -50 -2
-32 -9 21 -9 22 -14 22 -137 l0 -128 -43 45 c-23 25 -84 90 -135 145 l-92 100
0 -165z"/>
<path d="M2485 408 c-33 -18 -45 -40 -45 -82 0 -35 6 -45 65 -101 74 -71 82
-100 38 -135 -40 -31 -97 -14 -106 33 -2 12 -5 3 -6 -20 -1 -40 0 -41 38 -48
46 -8 104 13 120 43 6 12 11 39 11 62 0 38 -5 47 -65 103 -40 38 -65 69 -65
83 0 25 29 54 54 54 26 0 56 -19 56 -35 0 -28 15 -15 16 14 1 25 -4 30 -29 35
-41 8 -59 7 -82 -6z"/>
<path d="M2860 260 c0 -91 -4 -170 -8 -176 -4 -6 -14 -14 -22 -17 -8 -3 12 -5
45 -6 43 0 54 3 39 9 -26 10 -34 51 -34 175 l0 90 131 -137 c72 -76 135 -138
140 -138 5 0 9 71 9 165 0 146 2 165 18 174 13 8 4 10 -38 10 -43 0 -50 -2
-32 -9 21 -9 22 -14 22 -137 l0 -128 -43 45 c-23 25 -84 90 -135 145 l-92 100
0 -165z"/>
<path d="M3676 258 c-20 -180 -21 -185 -44 -191 -10 -3 8 -5 38 -5 30 0 47 2
36 5 -17 5 -18 13 -11 111 4 59 10 110 14 115 4 4 31 -45 61 -108 29 -64 57
-118 62 -121 5 -3 36 52 70 123 l62 128 7 -60 c4 -33 10 -90 14 -128 l7 -67
46 1 c39 0 43 2 24 9 -31 13 -37 35 -52 190 -7 74 -16 141 -20 148 -4 9 -16
-7 -33 -45 -14 -32 -45 -98 -68 -148 l-42 -89 -73 147 c-41 81 -76 147 -77
147 -2 0 -12 -73 -21 -162z"/>
<path d="M5156 258 c-20 -180 -21 -185 -44 -191 -10 -3 8 -5 38 -5 30 0 47 2
36 5 -17 5 -18 13 -11 111 4 59 10 110 14 115 4 4 31 -45 61 -108 29 -64 57
-118 62 -121 5 -3 36 52 70 123 l62 128 7 -60 c4 -33 10 -90 14 -128 l7 -67
46 1 c39 0 43 2 24 9 -31 13 -37 35 -52 190 -7 74 -16 141 -20 148 -4 9 -16
-7 -33 -45 -14 -32 -45 -98 -68 -148 l-42 -89 -73 147 c-41 81 -76 147 -77
147 -2 0 -12 -73 -21 -162z"/>
<path d="M58 400 c21 -9 22 -13 22 -164 0 -137 -2 -156 -18 -165 -13 -8 -2
-10 43 -10 33 0 53 3 45 6 -24 10 -30 25 -30 86 0 56 0 57 29 57 24 0 36 -10
66 -50 56 -77 89 -100 138 -99 24 1 32 4 19 6 -25 5 -68 44 -119 109 l-32 41
24 33 c24 33 32 80 19 115 -12 30 -59 45 -146 44 -60 0 -77 -3 -60 -9z m151
-36 c23 -30 28 -90 8 -115 -17 -21 -44 -30 -73 -23 -23 6 -24 10 -24 85 l0 79
34 0 c25 0 40 -7 55 -26z"/>
<path d="M2038 400 c20 -9 22 -16 23 -97 1 -178 27 -232 118 -248 52 -9 122
22 141 63 8 15 15 78 17 147 4 94 8 123 21 133 13 10 7 12 -39 11 -30 0 -47
-3 -39 -6 26 -10 30 -26 30 -123 0 -122 -12 -165 -53 -191 -42 -26 -84 -18
-119 21 -27 30 -28 33 -28 155 0 108 2 125 18 134 13 8 1 10 -48 10 -49 0 -59
-3 -42 -9z"/>
<path d="M3258 400 c20 -9 22 -16 23 -97 1 -178 27 -232 118 -248 52 -9 122
22 141 63 8 15 15 78 17 147 4 94 8 123 21 133 13 10 7 12 -39 11 -30 0 -47
-3 -39 -6 26 -10 30 -26 30 -123 0 -122 -12 -165 -53 -191 -42 -26 -84 -18
-119 21 -27 30 -28 33 -28 155 0 108 2 125 18 134 13 8 1 10 -48 10 -49 0 -59
-3 -42 -9z"/>
<path d="M4138 400 c21 -9 22 -13 22 -164 0 -137 -2 -156 -17 -165 -13 -8 8
-10 80 -11 77 0 97 3 97 14 0 8 3 23 6 33 4 14 1 13 -12 -5 -18 -25 -81 -31
-102 -10 -7 7 -12 40 -12 80 l0 68 29 0 c41 0 61 -9 62 -29 1 -9 4 -6 9 9 14
44 12 45 -45 42 l-55 -4 0 66 0 66 38 0 c41 0 57 -8 64 -30 3 -8 7 0 10 18 l5
32 -101 -1 c-71 0 -94 -3 -78 -9z"/>
<path d="M4408 400 c21 -9 22 -13 22 -164 0 -137 -2 -156 -17 -165 -14 -8 -3
-10 42 -10 33 0 53 3 45 6 -24 10 -30 25 -30 86 0 56 0 57 29 57 24 0 36 -10
66 -50 56 -77 89 -100 138 -99 24 1 32 4 19 6 -25 5 -68 44 -119 109 l-32 41
24 33 c24 33 32 80 19 115 -12 30 -59 45 -146 44 -60 0 -77 -3 -60 -9z m151
-36 c23 -30 28 -90 8 -115 -17 -21 -44 -30 -73 -23 -23 6 -24 10 -24 85 l0 79
34 0 c25 0 40 -7 55 -26z"/>
<path d="M4728 400 c20 -9 22 -16 23 -97 1 -178 27 -232 118 -248 52 -9 122
22 141 63 8 15 15 78 17 147 4 94 8 123 21 133 13 10 7 12 -39 11 -30 0 -47
-3 -39 -6 26 -10 30 -26 30 -123 0 -122 -12 -165 -53 -191 -42 -26 -84 -18
-119 21 -27 30 -28 33 -28 155 0 108 2 125 18 134 13 8 1 10 -48 10 -49 0 -59
-3 -42 -9z"/>
</g>
</svg>
